# xmcd CD database file
#
# Track frame offsets:
#	167
#	23895
#	52150
#	79007
#	92202
#	115522
#	141997
#	160682
#	183317
#	210780
#
# Disc length: 3247 seconds
#
# Revision: 1
# Processed by: cddbd v1.5.2PL0 Copyright (c) Steve Scherf et al.
# Submitted via: CDex 1.70beta2
#
DISCID=7a0cad0a
DTITLE=Cannonball Adderley with Bill Evans - Know What I Mean?
DYEAR=1961
DGENRE=Jazz
TTITLE0=01 - Waltz for Debby
TTITLE1=02 - Goodbye
TTITLE2=03 - Who cares
TTITLE3=04 - Venice
TTITLE4=05 - Toy
TTITLE5=06 - Elsa
TTITLE6=07 - Nancy With the laughing face
TTITLE7=08 - Know what I mean
TTITLE8=09 - Who cares (Alt version)
TTITLE9=10 - Know what I mean (First version)
EXTD=YEAR: 1961
EXTT0=
EXTT1=
EXTT2=
EXTT3=
EXTT4=
EXTT5=
EXTT6=
EXTT7=
EXTT8=
EXTT9=
PLAYORDER=
